# 3ds Max Wavefront OBJ Exporter v0.97b - (c)2007 guruware
# File Created: 15.10.2012 22:06:05

#
# object Cylinder001
#

v  8.1377 0.3937 -0.9843
v  -3.2165 0.3937 -7.5396
v  -3.2165 3.5433 -7.5396
v  8.1377 3.5433 -0.9843
v  -4.9213 0.3937 -6.5554
v  -4.9213 0.3937 6.5554
v  -4.9213 3.5433 6.5554
v  -4.9213 3.5433 -6.5554
v  -3.2165 0.3937 7.5396
v  8.1377 0.3937 0.9843
v  8.1377 3.5433 0.9843
v  -3.2165 3.5433 7.5396
v  -4.5276 0.0000 6.3281
v  -4.5276 0.0000 -6.3281
v  -3.2165 0.0000 -7.0850
v  7.7440 0.0000 0.7569
v  7.7440 0.0000 -0.7569
v  -3.2165 0.0000 7.0850
v  -3.2165 3.8726 -7.1594
v  7.8085 3.8726 -0.7941
v  -4.5920 3.8726 6.3653
v  -4.5920 3.8726 -6.3653
v  7.8085 3.8726 0.7942
v  -3.2165 3.8726 7.1594
v  -3.2165 3.5433 -6.9714
v  7.6456 3.5433 -0.7001
v  -4.4291 3.5433 6.2712
v  -4.4291 3.5433 -6.2712
v  7.6456 3.5433 0.7001
v  -3.2165 3.5433 6.9714
# 30 vertices

vn 0.8660 0.0000 -0.5000
vn -0.0000 0.0000 -1.0000
vn -0.8660 0.0000 -0.5000
vn -0.8660 0.0000 0.5000
vn 0.0000 0.0000 1.0000
vn 0.8660 0.0000 0.5000
vn 0.0000 -1.0000 -0.0000
vn 0.3536 0.7071 -0.6124
vn -0.7071 0.7071 0.0000
vn 0.3536 0.7071 0.6124
vn 0.7071 0.7071 -0.0000
vn -0.3536 0.7071 -0.6124
vn -0.3536 0.7071 0.6124
vn -0.4482 0.4433 0.7763
vn 0.8963 0.4433 -0.0000
vn -0.4482 0.4433 -0.7763
vn -0.8964 0.4433 -0.0000
vn 0.4482 0.4433 0.7763
vn 0.4482 0.4433 -0.7763
vn 0.3536 -0.7071 -0.6124
vn -0.7071 -0.7071 0.0000
vn 0.3536 -0.7071 0.6124
vn 0.7071 -0.7071 -0.0000
vn -0.3536 -0.7071 -0.6124
vn -0.3536 -0.7071 0.6124
# 25 vertex normals

vt 1.0000 0.3459 0.0000
vt 0.1305 0.3459 0.0000
vt 0.1305 0.6329 0.0000
vt 1.0000 0.6329 0.0000
vt 0.9347 0.3459 0.0000
vt 0.0653 0.3459 0.0000
vt 0.0653 0.6329 0.0000
vt 0.9347 0.6329 0.0000
vt 0.7411 0.7465 0.0000
vt 0.2589 0.7465 0.0000
vt 0.2301 0.6910 0.0000
vt 0.5288 0.2273 0.0000
vt 0.4712 0.2273 0.0000
vt 0.7699 0.6910 0.0000
vt 0.0000 0.3459 0.0000
vt 0.0000 0.6329 0.0000
vt 0.5653 0.6329 0.0000
vt 0.4347 0.6329 0.0000
vt 0.4347 0.3459 0.0000
vt 0.5653 0.3459 0.0000
vt 1.5648 0.4666 0.0000
vt 1.5503 0.6551 0.0000
vt 0.5793 0.6551 0.0000
vt 0.5648 0.4666 0.0000
vt 1.0000 0.4729 0.0000
vt 0.9855 0.6534 0.0000
vt 0.0145 0.6534 0.0000
vt 0.0000 0.4729 0.0000
vt 0.9964 0.3465 0.0000
vt 0.9819 0.5261 0.0000
vt 0.0109 0.5261 0.0000
vt -0.0036 0.3465 0.0000
vt -0.3027 0.3487 0.0000
vt -0.3415 0.5330 0.0000
vt -0.6652 0.5330 0.0000
vt -0.7040 0.3487 0.0000
vt 0.9759 0.4650 0.0000
vt 0.8793 0.6538 0.0000
vt 0.0724 0.6538 0.0000
vt -0.0241 0.4650 0.0000
vt 1.0241 0.4691 0.0000
vt 0.9276 0.6525 0.0000
vt 0.1207 0.6525 0.0000
vt 0.0241 0.4691 0.0000
vt -0.0018 0.6325 0.0000
vt 0.0055 0.3588 0.0000
vt 0.9908 0.3588 0.0000
vt 0.9982 0.6325 0.0000
vt -0.0000 0.6333 0.0000
vt 0.0074 0.3667 0.0000
vt 0.9926 0.3667 0.0000
vt 1.0000 0.6333 0.0000
vt 0.0018 0.6408 0.0000
vt 0.0092 0.3636 0.0000
vt 0.9945 0.3636 0.0000
vt 1.0018 0.6408 0.0000
vt 0.0000 0.6394 0.0000
vt 0.0592 0.3604 0.0000
vt 0.9408 0.3604 0.0000
vt 1.0000 0.6394 0.0000
vt 0.0148 0.6309 0.0000
vt 0.0740 0.3649 0.0000
vt 0.9556 0.3649 0.0000
vt 1.0148 0.6309 0.0000
vt -0.0148 0.6353 0.0000
vt 0.0444 0.3658 0.0000
vt 0.9260 0.3658 0.0000
vt 0.9852 0.6353 0.0000
vt 0.0043 0.6303 0.0000
vt 0.0217 0.3614 0.0000
vt 0.9870 0.3614 0.0000
vt 1.0043 0.6303 0.0000
vt -0.0000 0.6338 0.0000
vt 0.0173 0.3662 0.0000
vt 0.9827 0.3662 0.0000
vt 1.0000 0.6338 0.0000
vt -0.0043 0.6304 0.0000
vt 0.0130 0.3600 0.0000
vt 0.9783 0.3600 0.0000
vt 0.9957 0.6304 0.0000
vt -0.6268 0.6283 0.0000
vt -0.5114 0.3624 0.0000
vt 0.2577 0.3624 0.0000
vt 0.3732 0.6283 0.0000
vt 0.2876 0.6324 0.0000
vt 0.4031 0.3621 0.0000
vt 1.1721 0.3621 0.0000
vt 1.2876 0.6324 0.0000
vt 0.0289 0.6359 0.0000
vt 0.1443 0.3614 0.0000
vt 0.9134 0.3614 0.0000
vt 1.0289 0.6359 0.0000
# 92 texture coords

g Cylinder001
s 8
f 1/1/1 2/2/2 3/3/2 4/4/1 
f 5/5/3 6/6/4 7/7/4 8/8/3 
f 9/2/5 10/1/6 11/4/6 12/3/5 
s 1
f 13/9/7 14/10/7 15/11/7 16/12/7 
f 15/11/7 17/13/7 16/12/7 
f 18/14/7 13/9/7 16/12/7 
s 8
f 2/2/2 5/15/3 8/16/3 3/3/2 
f 4/17/1 11/18/6 10/19/6 1/20/1 
f 6/15/4 9/2/5 12/3/5 7/16/4 
s off
f 3/21/8 19/22/8 20/23/8 4/24/8 
f 7/25/9 21/26/9 22/27/9 8/28/9 
f 11/29/10 23/30/10 24/31/10 12/32/10 
f 4/33/11 20/34/11 23/35/11 11/36/11 
f 8/37/12 22/38/12 19/39/12 3/40/12 
f 12/41/13 24/42/13 21/43/13 7/44/13 
f 19/45/14 25/46/14 26/47/14 20/48/14 
f 21/49/15 27/50/15 28/51/15 22/52/15 
f 23/53/16 29/54/16 30/55/16 24/56/16 
f 20/57/17 26/58/17 29/59/17 23/60/17 
f 22/61/18 28/62/18 25/63/18 19/64/18 
f 24/65/19 30/66/19 27/67/19 21/68/19 
f 1/69/20 17/70/20 15/71/20 2/72/20 
f 5/73/21 14/74/21 13/75/21 6/76/21 
f 9/77/22 18/78/22 16/79/22 10/80/22 
f 10/81/23 16/82/23 17/83/23 1/84/23 
f 2/85/24 15/86/24 14/87/24 5/88/24 
f 6/89/25 13/90/25 18/91/25 9/92/25 
# 25 polygons - 2 triangles

#
# object Object001
#

v  7.6456 3.5433 -0.7001
v  -3.2165 3.5433 -6.9714
v  -4.4291 3.5433 -6.2712
v  -3.2165 3.5433 6.9714
v  -4.4291 3.5433 6.2712
v  7.6456 3.5433 0.7001
# 6 vertices

vn -0.0000 1.0000 0.0000
vn -0.0000 1.0000 -0.0000
# 2 vertex normals

vt 1.2298 0.5587 0.0000
vt 1.0410 0.2756 0.0000
vt 1.0621 0.2440 0.0000
vt 1.4608 0.2756 0.0000
vt 1.4397 0.2440 0.0000
vt 1.2720 0.5587 0.0000
# 6 texture coords

g Object001
s 1
f 31/93/26 32/94/26 33/95/26 34/96/26 
f 33/95/26 35/97/26 34/96/26 
f 36/98/27 31/93/26 34/96/26 
# 1 polygons - 2 triangles

