# 3ds Max Wavefront OBJ Exporter v0.97b - (c)2007 guruware
# File Created: 29.09.2012 17:19:12

#
# object Box001
#

v  -0.4921 0.0000 -48.2283
v  -0.4921 0.0000 -50.0000
v  -0.2953 0.0000 -50.1968
v  0.4921 0.0000 -50.0000
v  0.2953 0.0000 -50.1968
v  0.4921 0.0000 -48.2283
v  0.4921 39.3701 -48.2283
v  -0.4921 39.3701 -48.2283
v  0.4921 39.8145 -50.0059
v  -0.2953 39.8622 -50.1968
v  0.2953 39.8622 -50.1968
v  -0.4921 39.8145 -50.0059
v  0.4921 40.2151 -47.3833
v  0.2953 40.3543 -47.2441
v  -0.2953 40.3543 -47.2441
v  -0.4921 40.2151 -47.3833
v  0.4921 41.2771 -47.2441
v  0.4921 40.5512 -47.2441
v  -0.2953 41.8307 -48.0315
v  0.2953 41.8307 -48.0315
v  -0.4921 41.6339 -47.9554
v  -0.2953 41.8307 -47.2441
v  0.2953 41.8307 -47.2441
v  0.4921 41.6339 -47.2441
v  -0.4921 41.6339 -47.2441
v  -0.4921 41.2771 -47.2441
v  0.4921 41.6339 -47.9554
v  -0.4921 40.5512 -47.2441
v  -0.4921 0.0000 48.2283
v  0.4921 0.0000 48.2283
v  0.4921 0.0000 50.0000
v  -0.2953 0.0000 50.1968
v  0.2953 0.0000 50.1968
v  -0.4921 0.0000 50.0000
v  -0.4921 39.3701 48.2283
v  0.4921 39.3701 48.2283
v  0.4921 39.8145 50.0059
v  0.2953 39.8622 50.1968
v  -0.2953 39.8622 50.1968
v  -0.4921 39.8145 50.0059
v  -0.4921 40.2151 47.3833
v  -0.2953 40.3543 47.2441
v  0.2953 40.3543 47.2441
v  0.4921 40.2151 47.3833
v  0.4921 41.2771 47.2441
v  0.4921 40.5512 47.2441
v  0.2953 41.8307 48.0315
v  -0.2953 41.8307 48.0315
v  -0.4921 41.6339 47.9554
v  0.2953 41.8307 47.2441
v  -0.2953 41.8307 47.2441
v  0.4921 41.6339 47.2441
v  -0.4921 41.2771 47.2441
v  -0.4921 41.6339 47.2441
v  0.2953 40.3543 -0.0000
v  -0.2953 40.3543 -0.0000
v  0.4921 41.2771 -0.0000
v  0.4921 40.5512 -0.0000
v  -0.4921 41.2771 -0.0000
v  -0.4921 40.5512 -0.0000
v  -0.4921 40.5512 47.2441
v  0.4921 41.6339 47.9554
# 62 vertices

vn 0.0000 -1.0000 -0.0000
vn 0.0000 0.0000 1.0000
vn 1.0000 0.0000 -0.0000
vn 0.0000 0.0000 -1.0000
vn -1.0000 0.0000 -0.0000
vn 0.0000 -0.7071 0.7071
vn 0.0000 0.7399 -0.6727
vn 0.0000 1.0000 -0.0000
vn 0.7018 -0.0001 -0.7124
vn -0.7018 -0.0001 -0.7124
vn -0.7071 0.7071 -0.0000
vn 0.6753 0.5486 -0.4930
vn -0.6753 0.5486 -0.4930
vn 0.7071 0.7071 -0.0000
vn -0.3574 -0.3574 0.8629
vn 0.3574 -0.3574 0.8629
vn 0.0000 -0.7071 -0.7071
vn 0.0000 0.7399 0.6727
vn 0.7018 -0.0001 0.7124
vn -0.7018 -0.0001 0.7124
vn 0.6753 0.5486 0.4930
vn -0.6753 0.5486 0.4930
vn -0.3574 -0.3574 -0.8629
vn 0.3574 -0.3574 -0.8629
vn -0.7071 -0.7071 -0.0000
vn 0.7071 -0.7071 -0.0000
# 26 vertex normals

vt -0.0000 0.9804 0.0000
vt -0.0000 0.9980 0.0000
vt 0.2000 1.0000 0.0000
vt 1.0000 0.9980 0.0000
vt 0.8000 1.0000 0.0000
vt 1.0000 0.9804 0.0000
vt -0.5850 0.3604 0.0000
vt -0.5850 0.4959 0.0000
vt 1.5850 0.4960 0.0000
vt 1.5850 0.3605 0.0000
vt -1.5546 0.3738 0.0000
vt -1.5546 0.6254 0.0000
vt 2.5546 0.6262 0.0000
vt 2.5088 0.3738 0.0000
vt -2.1574 0.6402 0.0000
vt -2.1574 0.3593 0.0000
vt 3.1574 0.3598 0.0000
vt 3.1574 0.6407 0.0000
vt 0.4518 0.6223 0.0000
vt 0.3220 0.6223 0.0000
vt 0.3006 0.5948 0.0000
vt 0.4518 0.4850 0.0000
vt 0.3006 0.5125 0.0000
vt 0.3220 0.4851 0.0000
vt 0.0694 0.3820 0.0000
vt 0.1732 0.2872 0.0000
vt 0.2441 0.2592 0.0000
vt 0.5038 0.2448 0.0000
vt 0.0000 0.6423 0.0000
vt 0.0000 0.3577 0.0000
vt 0.7333 0.3577 0.0000
vt 0.7333 0.6423 0.0000
vt 0.7230 0.5029 0.0000
vt 0.4946 0.2429 0.0000
vt 0.1260 0.5076 0.0000
vt 1.0000 0.3577 0.0000
vt 1.0000 0.6423 0.0000
vt 1.0000 0.9706 0.0000
vt -0.0000 0.9706 0.0000
vt -1.8493 0.6335 0.0000
vt -1.8493 0.5694 0.0000
vt 2.8493 0.5694 0.0000
vt 2.8436 0.6335 0.0000
vt -1.8493 0.3771 0.0000
vt -1.8493 0.3130 0.0000
vt 2.8436 0.3130 0.0000
vt 2.8493 0.3771 0.0000
vt 0.3912 0.4392 0.0000
vt 0.4123 0.3986 0.0000
vt 0.6088 0.3986 0.0000
vt 0.6088 0.4392 0.0000
vt 0.1532 0.3782 0.0000
vt 0.1334 0.5042 0.0000
vt 0.8439 0.5189 0.0000
vt 0.8087 0.3824 0.0000
vt -0.1594 0.5078 0.0000
vt -0.1040 0.4296 0.0000
vt 1.1146 0.4018 0.0000
vt 1.1416 0.4956 0.0000
vt 0.6088 0.5195 0.0000
vt 0.6088 0.3932 0.0000
vt 0.4123 0.3932 0.0000
vt 0.3912 0.5195 0.0000
vt 0.0602 0.3802 0.0000
vt 0.0092 0.4268 0.0000
vt 0.7321 0.5047 0.0000
vt 0.1352 0.5094 0.0000
vt 0.2350 0.2573 0.0000
vt 0.1640 0.2854 0.0000
vt 0.0184 0.4286 0.0000
vt 0.8000 0.9706 0.0000
vt 0.2000 0.9706 0.0000
vt -0.0000 0.9720 0.0000
vt 1.0000 0.9720 0.0000
vt 0.0000 0.0196 0.0000
vt 1.0000 0.0196 0.0000
vt 1.0000 0.0020 0.0000
vt 0.2000 0.0000 0.0000
vt 0.8000 0.0000 0.0000
vt 0.0000 0.0020 0.0000
vt -0.5850 0.3605 0.0000
vt 1.5850 0.3606 0.0000
vt 1.5850 0.4961 0.0000
vt -0.5850 0.4960 0.0000
vt -1.7104 0.6279 0.0000
vt 2.6559 0.6279 0.0000
vt 2.7051 0.3603 0.0000
vt -1.7104 0.3612 0.0000
vt -1.6343 0.6239 0.0000
vt 2.6343 0.6239 0.0000
vt 2.6343 0.3761 0.0000
vt -1.6343 0.3761 0.0000
vt 0.6345 0.4845 0.0000
vt 0.6535 0.5120 0.0000
vt 0.6535 0.5943 0.0000
vt 0.5192 0.4845 0.0000
vt 0.6345 0.6217 0.0000
vt 0.5192 0.6217 0.0000
vt 0.7323 0.6041 0.0000
vt 0.4245 0.7467 0.0000
vt 0.6083 0.7319 0.0000
vt 0.6585 0.7027 0.0000
vt 1.0000 0.6346 0.0000
vt 0.2667 0.6346 0.0000
vt 0.2667 0.3654 0.0000
vt 1.0000 0.3654 0.0000
vt 0.2766 0.4843 0.0000
vt 0.6990 0.4797 0.0000
vt 0.4373 0.7549 0.0000
vt 0.0000 0.6346 0.0000
vt 0.0000 0.3654 0.0000
vt 1.0000 0.0294 0.0000
vt 0.0000 0.0294 0.0000
vt 13.2741 0.6330 0.0000
vt 13.2741 0.3670 0.0000
vt 0.5000 0.3670 0.0000
vt 0.5000 0.6330 0.0000
vt -12.2741 0.6330 0.0000
vt -12.2741 0.3670 0.0000
vt -3.5325 0.4251 0.0000
vt -3.5325 0.6306 0.0000
vt 0.5000 0.6306 0.0000
vt 0.5000 0.4251 0.0000
vt 4.5325 0.4251 0.0000
vt 4.5325 0.6306 0.0000
vt 4.8600 0.3755 0.0000
vt 4.8600 0.6091 0.0000
vt 0.5000 0.6089 0.0000
vt 0.5000 0.3752 0.0000
vt -3.8600 0.3750 0.0000
vt -3.8600 0.6086 0.0000
vt -1.6343 0.7065 0.0000
vt 2.6292 0.7065 0.0000
vt 2.6292 0.2935 0.0000
vt -1.6343 0.2935 0.0000
vt 0.2000 0.4974 0.0000
vt 0.0000 0.3767 0.0000
vt -0.1913 0.5841 0.0000
vt 1.1936 0.5930 0.0000
vt 1.2336 0.4915 0.0000
vt -0.2451 0.4859 0.0000
vt -0.0775 0.3710 0.0000
vt 0.9986 0.3661 0.0000
vt 1.0011 0.2421 0.0000
vt -0.0147 0.2521 0.0000
vt 0.8000 0.4974 0.0000
vt 1.0000 0.3767 0.0000
vt 0.7814 0.5638 0.0000
vt 0.7451 0.6123 0.0000
vt 0.6862 0.4715 0.0000
vt 0.2638 0.4761 0.0000
vt 0.6713 0.7109 0.0000
vt 0.6210 0.7401 0.0000
vt 0.7686 0.5557 0.0000
vt 0.8000 0.0294 0.0000
vt 0.2000 0.0294 0.0000
vt 0.0000 0.0280 0.0000
vt 1.0000 0.0280 0.0000
vt -3.5325 0.3694 0.0000
vt 0.5000 0.3694 0.0000
vt 4.5325 0.3694 0.0000
# 161 texture coords

g Box001
s off
f 1/1/1 2/2/1 3/3/1 4/4/1 
f 3/3/1 5/5/1 4/4/1 
f 1/1/1 4/4/1 6/6/1 
f 1/7/2 6/8/2 7/9/2 8/10/2 
f 6/11/3 4/12/3 9/13/3 7/14/3 
f 5/15/4 3/16/4 10/17/4 11/18/4 
f 2/12/5 1/11/5 8/14/5 12/13/5 
f 7/19/6 13/20/6 14/21/6 8/22/6 
f 14/21/6 15/23/6 16/24/6 8/22/6 
f 17/25/3 18/26/3 13/27/3 7/28/3 
f 11/29/7 10/30/7 19/31/7 20/32/7 
f 12/33/5 8/34/5 21/35/5 
f 20/32/8 19/31/8 22/36/8 23/37/8 
f 24/38/2 25/39/2 26/39/2 17/38/2 
f 4/40/9 5/41/9 11/42/9 9/43/9 
f 3/44/10 2/45/10 12/46/10 10/47/10 
f 19/48/11 21/49/11 25/50/11 22/51/11 
f 9/52/12 11/53/12 20/54/12 27/55/12 
f 10/56/13 12/57/13 21/58/13 19/59/13 
f 23/60/14 24/61/14 27/62/14 20/63/14 
f 8/34/5 26/64/5 25/65/5 21/35/5 
f 7/28/3 9/66/3 27/67/3 
f 8/34/5 16/68/5 28/69/5 26/64/5 
f 7/28/3 27/67/3 24/70/3 17/25/3 
f 23/71/2 22/72/2 25/39/2 24/38/2 
f 16/73/15 15/72/15 28/39/15 
f 13/74/16 18/38/16 14/71/16 
f 29/75/1 30/76/1 31/77/1 32/78/1 
f 31/77/1 33/79/1 32/78/1 
f 29/75/1 32/78/1 34/80/1 
f 29/81/4 35/82/4 36/83/4 30/84/4 
f 30/85/3 36/86/3 37/87/3 31/88/3 
f 33/89/2 38/90/2 39/91/2 32/92/2 
f 34/88/5 40/87/5 35/86/5 29/85/5 
f 41/93/17 42/94/17 43/95/17 35/96/17 
f 43/95/17 44/97/17 36/98/17 35/96/17 
f 45/99/3 36/100/3 44/101/3 46/102/3 
f 38/103/18 47/104/18 48/105/18 39/106/18 
f 40/107/5 49/108/5 35/109/5 
f 47/104/8 50/110/8 51/111/8 48/105/8 
f 52/112/4 45/112/4 53/113/4 54/113/4 
f 15/114/1 14/115/1 55/116/1 56/117/1 
f 42/118/1 56/117/1 55/116/1 43/119/1 
f 18/120/3 17/121/3 57/122/3 58/123/3 
f 46/124/3 58/123/3 57/122/3 45/125/3 
f 17/126/8 26/127/8 59/128/8 57/129/8 
f 45/130/8 57/129/8 59/128/8 53/131/8 
f 26/121/5 28/120/5 60/123/5 59/122/5 
f 53/125/5 59/122/5 60/123/5 61/124/5 
f 31/132/19 37/133/19 38/90/19 33/89/19 
f 32/92/20 39/91/20 40/134/20 34/135/20 
f 48/136/11 51/136/11 54/137/11 49/137/11 
f 37/138/21 62/139/21 47/140/21 38/141/21 
f 39/142/22 48/143/22 49/144/22 40/145/22 
f 50/146/14 47/146/14 62/147/14 52/147/14 
f 35/109/5 49/108/5 54/148/5 53/149/5 
f 36/100/3 62/150/3 37/151/3 
f 35/109/5 53/149/5 61/152/5 41/153/5 
f 36/100/3 45/99/3 52/154/3 62/150/3 
f 50/155/4 52/112/4 54/113/4 51/156/4 
f 41/157/23 61/113/23 42/156/23 
f 44/158/24 43/155/24 46/112/24 
f 28/120/25 15/159/25 56/160/25 60/123/25 
f 61/124/25 60/123/25 56/160/25 42/161/25 
f 14/159/26 18/120/26 58/123/26 55/160/26 
f 43/161/26 55/160/26 58/123/26 46/124/26 
# 54 polygons - 12 triangles

