mtllib StageLight_01.mtl
o StageLight_01.obj
v -0.005737 0.000000 0.004956
v 0.005737 0.000000 0.004956
v -0.005737 0.879428 -0.048156
v 0.005737 0.879428 -0.048156
v 0.005737 0.588016 -0.203928
v -0.005737 0.588016 -0.203928
v -0.003737 0.000000 -0.004956
v -0.005737 0.000000 -0.000126
v 0.003737 0.000000 -0.004956
v 0.005737 0.000000 -0.000126
v -0.003737 0.885236 -0.056189
v -0.005737 0.884064 -0.051738
v 0.003737 0.885236 -0.056189
v 0.005737 0.884064 -0.051738
v 0.003737 0.588016 -0.213840
v 0.005737 0.588016 -0.209009
v -0.003737 0.588016 -0.213840
v -0.005737 0.588016 -0.209009
v -0.003921 0.879428 -0.048156
v 0.003921 0.879428 -0.048156
v 0.003921 0.000000 0.004956
v -0.003921 0.000000 0.004956
v 0.003921 0.588016 -0.203928
v -0.003921 0.588016 -0.203928
v 0.005737 0.733722 -0.126042
v -0.005737 0.733722 -0.126042
v 0.003921 0.733722 -0.126042
v -0.003921 0.733722 -0.126042
v 0.005737 0.806575 -0.087099
v -0.003921 0.806575 -0.087099
v -0.005737 0.806575 -0.087099
v 0.003921 0.806575 -0.087099
v -0.005737 0.660869 -0.164985
v 0.003921 0.660869 -0.164985
v 0.005737 0.660869 -0.164985
v -0.003921 0.660869 -0.164985
v 0.005737 0.870321 -0.053024
v -0.003921 0.870321 -0.053024
v -0.005737 0.870321 -0.053024
v 0.003921 0.870321 -0.053024
v -0.005737 0.294008 -0.099486
v 0.005737 0.294008 -0.099486
v 0.003921 0.294008 -0.099486
v -0.003921 0.294008 -0.099486
v 0.005737 0.441012 -0.151707
v -0.003921 0.441012 -0.151707
v -0.005737 0.441012 -0.151707
v 0.003921 0.441012 -0.151707
v -0.005737 0.147004 -0.047265
v 0.003921 0.147004 -0.047265
v 0.005737 0.147004 -0.047265
v -0.003921 0.147004 -0.047265
v -0.005737 0.009188 0.001692
v 0.003921 0.009188 0.001692
v 0.005737 0.009188 0.001692
v -0.003921 0.009188 0.001692
vn -0.655049 -0.435777 0.617259
vn 0.655050 -0.435777 0.617259
vn -0.511681 0.071593 0.856187
vn 0.511681 0.071593 0.856187
vn 0.737889 -0.050426 0.673036
vn -0.737889 -0.050426 0.673036
vn -0.420372 -0.674680 -0.606708
vn -0.662118 -0.737858 -0.131019
vn 0.420372 -0.674680 -0.606708
vn 0.662118 -0.737858 -0.131019
vn -0.432485 0.770489 -0.468298
vn -0.709931 0.656656 0.254559
vn 0.426839 0.770663 -0.473168
vn 0.708118 0.660584 0.249393
vn 0.575559 0.062688 -0.815354
vn 0.980951 0.016557 -0.193549
vn -0.579500 0.060338 -0.812736
vn -0.981775 0.014505 -0.189494
vn 0.000000 -0.128657 0.991689
vn 0.000000 -0.128657 0.991689
vn 0.000001 -0.172740 0.984967
vn 0.000000 -0.172740 0.984967
vn 0.000000 -0.074713 0.997205
vn 0.000000 -0.074713 0.997205
vn 0.447214 -0.421648 0.788805
vn -0.447214 -0.421648 0.788805
vn 0.000000 -0.471417 0.881911
vn 0.000000 -0.471417 0.881911
vn 0.447214 -0.421648 0.788805
vn 0.000000 -0.471417 0.881911
vn -0.447214 -0.421648 0.788805
vn 0.000000 -0.471417 0.881911
vn -0.447214 -0.421648 0.788805
vn 0.000000 -0.471417 0.881911
vn 0.447214 -0.421648 0.788805
vn 0.000000 -0.471417 0.881911
vn 0.447214 -0.421648 0.788805
vn 0.000000 -0.471416 0.881911
vn -0.447214 -0.421648 0.788805
vn 0.000000 -0.471416 0.881911
vn -0.447215 0.299402 0.842827
vn 0.447214 0.299402 0.842828
vn 0.000000 0.334741 0.942310
vn -0.000001 0.334741 0.942310
vn 0.447214 0.299402 0.842828
vn 0.000000 0.334741 0.942310
vn -0.447214 0.299402 0.842828
vn 0.000000 0.334741 0.942310
vn -0.447216 0.299401 0.842827
vn 0.000001 0.334741 0.942310
vn 0.447215 0.299402 0.842827
vn -0.000003 0.334741 0.942310
vn -0.447215 0.299402 0.842827
vn 0.000001 0.334741 0.942310
vn 0.447215 0.299401 0.842827
vn -0.000001 0.334741 0.942310
vt 0.822461 -20.594126
vt 0.822461 0.811000
vt 0.177539 0.811000
vt 0.177539 -20.594126
vt 0.995049 0.004950
vt 0.995049 0.004950
vt 0.825989 0.004950
vt 0.825989 0.004950
vt 0.174011 0.004950
vt 0.004950 0.004950
vt 0.004951 0.648367
vt 0.995049 0.648367
vt 0.995049 0.004950
vt 0.995049 0.004950
vt 0.995049 0.004950
vt 0.995049 0.004950
vt 0.995049 0.004950
vt 0.995049 0.004950
vt 0.995049 0.648367
vt 0.995049 -20.692070
vt 0.004950 0.004950
vt 0.174011 0.004950
vt 0.825989 0.004950
vt 0.004951 -20.692070
vt 0.004950 0.004950
vt 0.004950 0.004950
vt 0.004950 0.004950
vt 0.004950 0.004950
vt 0.004950 0.004950
vt 0.004951 0.648367
vt 0.822461 0.811000
vt 0.177539 0.811000
vt 0.825989 0.004950
vt 0.825989 0.004950
vt 0.995049 0.004950
vt 0.995049 0.004950
vt 0.995049 0.004950
vt 0.004950 0.004950
vt 0.004950 0.004950
vt 0.004950 0.004950
vt 0.004950 0.004950
vt 0.174011 0.004950
vt 0.174011 0.004950
vt 0.174011 0.004950
vt 0.825989 0.004950
vt 0.825989 0.004950
vt 0.174011 0.004950
vt 0.174011 0.004950
vt 0.174011 0.004950
vt 0.825989 0.004950
vt 0.825989 0.004950
vt 0.825989 0.004950
vt 0.174011 0.004950
vt 0.174011 0.004950
vt 0.825989 0.004950
vt 0.174011 0.004950
g Cube
usemtl Default
f 13/1/13 15/2/15 17/3/17 11/4/11 
f 2/5/2 55/6/55 54/7/54 21/8/21 
f 2/5/2 21/8/21 22/9/22 1/10/1 8/11/8 10/12/10 
f 4/13/4 37/14/37 29/15/29 25/16/25 35/17/35 5/18/5 16/19/16 14/20/14 
f 3/21/3 19/22/19 20/23/20 4/13/4 14/20/14 12/24/12 
f 1/10/1 53/25/53 49/26/49 41/27/41 47/28/47 6/29/6 18/30/18 8/11/8 
f 15/2/15 9/31/9 7/32/7 17/3/17 
f 5/18/5 35/17/35 34/33/34 23/34/23 
f 5/18/5 45/35/45 42/36/42 51/37/51 55/6/55 2/5/2 10/12/10 16/19/16 
f 6/29/6 33/38/33 26/39/26 31/40/31 39/41/39 3/21/3 12/24/12 18/30/18 
f 16/19/16 10/12/10 9/31/9 15/2/15 
f 18/30/18 12/24/12 11/4/11 17/3/17 
f 14/20/14 16/19/16 15/2/15 13/1/13 
f 17/3/17 7/32/7 8/11/8 18/30/18 
f 24/42/24 6/29/6 47/28/47 46/43/46 
f 19/22/19 3/21/3 39/41/39 38/44/38 
f 19/22/19 38/44/38 40/50/40 20/23/20 
f 25/16/25 29/15/29 32/45/32 27/46/27 
f 26/39/26 33/38/33 36/47/36 28/48/28 
f 31/40/31 26/39/26 28/48/28 30/49/30 
f 32/45/32 29/15/29 37/14/37 40/50/40 
f 35/17/35 25/16/25 27/46/27 34/33/34 
f 33/38/33 6/29/6 24/42/24 36/47/36 
f 31/40/31 30/49/30 38/44/38 39/41/39 
f 37/14/37 4/13/4 20/23/20 40/50/40 
f 42/36/42 45/35/45 48/51/48 43/52/43 
f 41/27/41 49/26/49 52/53/52 44/54/44 
f 47/28/47 41/27/41 44/54/44 46/43/46 
f 45/35/45 5/18/5 23/34/23 48/51/48 
f 51/37/51 42/36/42 43/52/43 50/55/50 
f 52/53/52 49/26/49 53/25/53 56/56/56 
f 51/37/51 50/55/50 54/7/54 55/6/55 
f 53/25/53 1/10/1 22/9/22 56/56/56 
f 56/56/56 22/9/22 21/8/21 54/7/54 
f 14/20/14 13/1/13 11/4/11 12/24/12 
f 8/11/8 7/32/7 9/31/9 10/12/10 
v 0.003921 0.147004 -0.047265
v -0.003921 0.147004 -0.047265
v 0.003921 0.009188 0.001692
v -0.003921 0.009188 0.001692
v -0.001751 0.147648 -0.045723
v -0.001751 0.009831 0.003235
v 0.001751 0.147648 -0.045723
v 0.001751 0.009831 0.003235
vn 0.609708 0.265325 0.746899
vn -0.609706 0.265325 0.746901
vn 0.422176 -0.455271 0.783898
vn -0.422174 -0.455271 0.783899
vn -0.322003 0.316912 0.892121
vn -0.278898 -0.147641 0.948903
vn 0.322005 0.316912 0.892121
vn 0.278899 -0.147642 0.948903
vt 0.701265 0.004950
vt 0.298735 0.004950
vt 0.298735 0.004950
vt 0.701265 0.004950
vt 0.174011 0.004950
vt 0.174011 0.004950
vt 0.825989 0.004950
vt 0.825989 0.004950
g Generic
usemtl Default
f 63/57/63 61/58/61 62/59/62 64/60/64 
f 58/61/58 60/62/60 62/59/62 61/58/61 
f 60/62/60 59/63/59 64/60/64 62/59/62 
f 59/63/59 57/64/57 63/57/63 64/60/64 
v 0.003921 0.294008 -0.099486
v -0.003921 0.294008 -0.099486
v 0.003921 0.147004 -0.047265
v -0.003921 0.147004 -0.047265
v -0.001751 0.147648 -0.045723
v -0.001751 0.294652 -0.097943
v 0.001751 0.294652 -0.097943
v 0.001751 0.147648 -0.045723
vn 0.609705 0.265325 0.746902
vn -0.609708 0.265325 0.746899
vn 0.609705 0.265325 0.746902
vn -0.609708 0.265325 0.746899
vn -0.322005 0.316912 0.892121
vn -0.322005 0.316912 0.892121
vn 0.322003 0.316913 0.892121
vn 0.322003 0.316913 0.892121
vt 0.298735 0.004950
vt 0.298735 0.004950
vt 0.701265 0.004950
vt 0.701265 0.004950
vt 0.174011 0.004950
vt 0.174011 0.004950
vt 0.825989 0.004950
vt 0.825989 0.004950
g Generic
usemtl Default
f 70/65/70 69/66/69 72/67/72 71/68/71 
f 66/69/66 68/70/68 69/66/69 70/65/70 
f 67/71/67 65/72/65 71/68/71 72/67/72 
v 0.003921 0.294008 -0.099486
v -0.003921 0.294008 -0.099486
v -0.003921 0.441012 -0.151707
v 0.003921 0.441012 -0.151707
v -0.001751 0.441656 -0.150164
v -0.001751 0.294652 -0.097943
v 0.001751 0.441656 -0.150164
v 0.001751 0.294652 -0.097943
vn 0.609708 0.265325 0.746899
vn -0.609705 0.265325 0.746902
vn -0.609705 0.265325 0.746902
vn 0.609708 0.265325 0.746899
vn -0.322003 0.316913 0.892121
vn -0.322003 0.316913 0.892121
vn 0.322005 0.316912 0.892121
vn 0.322005 0.316912 0.892121
vt 0.298735 0.004950
vt 0.298735 0.004950
vt 0.701265 0.004950
vt 0.701265 0.004950
vt 0.174011 0.004950
vt 0.174011 0.004950
vt 0.825989 0.004950
vt 0.825989 0.004950
g Generic
usemtl Default
f 77/73/77 78/74/78 80/75/80 79/76/79 
f 75/77/75 74/78/74 78/74/78 77/73/77 
f 73/79/73 76/80/76 79/76/79 80/75/80 
v 0.003921 0.588016 -0.203928
v -0.003921 0.588016 -0.203928
v -0.003921 0.441012 -0.151707
v 0.003921 0.441012 -0.151707
v -0.001751 0.441656 -0.150164
v -0.001751 0.587859 -0.202101
v 0.001751 0.587859 -0.202101
v 0.001751 0.441656 -0.150164
vn 0.609711 0.265324 0.746898
vn -0.609708 0.265325 0.746899
vn -0.609708 0.265325 0.746899
vn 0.609711 0.265324 0.746898
vn -0.322005 0.316912 0.892121
vn -0.322005 0.316912 0.892121
vn 0.322006 0.316912 0.892120
vn 0.322006 0.316912 0.892120
vt 0.298735 0.004950
vt 0.298735 0.004950
vt 0.701265 0.004950
vt 0.701265 0.004950
vt 0.174011 0.004950
vt 0.174011 0.004950
vt 0.825989 0.004950
vt 0.825989 0.004950
g Generic
usemtl Default
f 86/81/86 85/82/85 88/83/88 87/84/87 
f 82/85/82 83/86/83 85/82/85 86/81/86 
f 84/87/84 81/88/81 87/84/87 88/83/88 
v 0.003921 0.588016 -0.203928
v -0.003921 0.588016 -0.203928
v 0.003921 0.660869 -0.164985
v -0.003921 0.660869 -0.164985
v -0.001751 0.587859 -0.202101
v -0.001751 0.659963 -0.163559
v 0.001751 0.587859 -0.202101
v 0.001751 0.659963 -0.163559
vn 0.613430 -0.372301 0.696488
vn -0.613429 -0.372302 0.696489
vn 0.613430 -0.372301 0.696488
vn -0.613429 -0.372302 0.696489
vn -0.324230 -0.445950 0.834268
vn -0.324230 -0.445950 0.834268
vn 0.324230 -0.445950 0.834268
vn 0.324230 -0.445950 0.834268
vt 0.298735 0.004950
vt 0.298735 0.004950
vt 0.701265 0.004950
vt 0.701265 0.004950
vt 0.174011 0.004950
vt 0.174011 0.004950
vt 0.825989 0.004950
vt 0.825989 0.004950
g Generic
usemtl Default
f 94/89/94 93/90/93 95/91/95 96/92/96 
f 92/93/92 90/94/90 93/90/93 94/89/94 
f 89/95/89 91/96/91 96/92/96 95/91/95 
v 0.003921 0.733722 -0.126042
v -0.003921 0.733722 -0.126042
v 0.003921 0.660869 -0.164985
v -0.003921 0.660869 -0.164985
v -0.001751 0.659963 -0.163559
v -0.001751 0.732816 -0.124616
v 0.001751 0.732816 -0.124616
v 0.001751 0.659963 -0.163559
vn 0.613430 -0.372301 0.696488
vn -0.613430 -0.372301 0.696488
vn 0.613430 -0.372301 0.696488
vn -0.613430 -0.372301 0.696488
vn -0.324230 -0.445950 0.834268
vn -0.324230 -0.445950 0.834268
vn 0.324230 -0.445950 0.834268
vn 0.324230 -0.445950 0.834268
vt 0.298735 0.004950
vt 0.298735 0.004950
vt 0.701265 0.004950
vt 0.701265 0.004950
vt 0.174011 0.004950
vt 0.174011 0.004950
vt 0.825989 0.004950
vt 0.825989 0.004950
g Generic
usemtl Default
f 102/97/102 101/98/101 104/99/104 103/100/103 
f 98/101/98 100/102/100 101/98/101 102/97/102 
f 99/103/99 97/104/97 103/100/103 104/99/104 
v 0.003921 0.733722 -0.126042
v -0.003921 0.733722 -0.126042
v -0.003921 0.806575 -0.087099
v 0.003921 0.806575 -0.087099
v -0.001751 0.732816 -0.124616
v -0.001751 0.805668 -0.085673
v 0.001751 0.732816 -0.124616
v 0.001751 0.805668 -0.085673
vn 0.613430 -0.372301 0.696488
vn -0.613430 -0.372301 0.696488
vn -0.613430 -0.372301 0.696488
vn 0.613430 -0.372301 0.696488
vn -0.324230 -0.445950 0.834268
vn -0.324230 -0.445950 0.834268
vn 0.324230 -0.445950 0.834268
vn 0.324230 -0.445950 0.834268
vt 0.298735 0.004950
vt 0.298735 0.004950
vt 0.701265 0.004950
vt 0.701265 0.004950
vt 0.174011 0.004950
vt 0.174011 0.004950
vt 0.825989 0.004950
vt 0.825989 0.004950
g Generic
usemtl Default
f 110/105/110 109/106/109 111/107/111 112/108/112 
f 107/109/107 106/110/106 109/106/109 110/105/110 
f 105/111/105 108/112/108 112/108/112 111/107/111 
v -0.003921 0.806575 -0.087099
v 0.003921 0.806575 -0.087099
v -0.003921 0.870321 -0.053024
v 0.003921 0.870321 -0.053024
v -0.001751 0.805668 -0.085673
v -0.001751 0.869415 -0.051598
v 0.001751 0.805668 -0.085673
v 0.001751 0.869415 -0.051598
vn -0.613430 -0.372301 0.696488
vn 0.613431 -0.372301 0.696488
vn -0.421407 0.323969 0.847030
vn 0.421407 0.323970 0.847030
vn -0.324230 -0.445950 0.834268
vn -0.278569 0.000080 0.960416
vn 0.324231 -0.445950 0.834268
vn 0.278569 0.000080 0.960416
vt 0.298735 0.004950
vt 0.701265 0.004950
vt 0.701265 0.004950
vt 0.298735 0.004950
vt 0.825989 0.004950
vt 0.825989 0.004950
vt 0.174011 0.004950
vt 0.174011 0.004950
g Generic
usemtl Default
f 117/113/117 119/114/119 120/115/120 118/116/118 
f 114/117/114 116/118/116 120/115/120 119/114/119 
f 116/118/116 115/119/115 118/116/118 120/115/120 
f 115/119/115 113/120/113 117/113/117 118/116/118 
