# 3ds Max Wavefront OBJ Exporter v0.97b - (c)2007 guruware
# File Created: 06.09.2012 20:54:57

mtllib Support_01.mtl

#
# object Box001
#

v  -4.9213 7.7083 49.2126
v  -4.9213 7.7083 23.6220
v  4.9213 7.7083 23.6220
v  4.9213 7.7083 49.2126
v  -4.9213 3.7713 15.7480
v  -4.9213 3.7713 -15.7480
v  4.9213 3.7713 -15.7480
v  4.9213 3.7713 15.7480
v  -4.9213 7.7083 -23.6220
v  -4.9213 7.7083 -49.2126
v  4.9213 7.7083 -49.2126
v  4.9213 7.7083 -23.6220
v  -4.9213 8.8894 49.2126
v  4.9213 8.8894 49.2126
v  4.9213 8.8894 23.6220
v  -4.9213 8.8894 23.6220
v  -4.9213 4.9524 15.7480
v  4.9213 4.9524 15.7480
v  4.9213 4.9524 -15.7480
v  -4.9213 4.9524 -15.7480
v  -4.9213 8.8894 -23.6220
v  4.9213 8.8894 -23.6220
v  4.9213 8.8894 -49.2126
v  -4.9213 8.8894 -49.2126
# 24 vertices

vn 0.0000 -1.0000 -0.0000
vn 0.0000 -0.9732 0.2298
vn 0.0000 -0.9732 -0.2298
vn 0.0000 1.0000 -0.0000
vn 0.0000 0.9732 -0.2298
vn 0.0000 0.9732 0.2298
vn 0.0000 0.0000 1.0000
vn 1.0000 0.0000 -0.0000
vn 0.0000 0.0000 -1.0000
vn -1.0000 0.0000 -0.0000
# 10 vertex normals

vt 1.0000 0.0000 0.0000
vt 0.7400 0.0000 0.0000
vt 0.7400 1.0000 0.0000
vt 1.0000 1.0000 0.0000
vt 0.6600 -0.0000 0.0000
vt 0.3400 -0.0000 0.0000
vt 0.3400 1.0000 0.0000
vt 0.6600 1.0000 0.0000
vt 0.2600 0.0000 0.0000
vt 0.0000 -0.0000 0.0000
vt 0.0000 1.0000 0.0000
vt 0.2600 1.0000 0.0000
vt 0.6600 0.0000 0.0000
vt 0.7692 0.0000 0.0000
vt 0.7692 1.0000 0.0000
vt 1.0000 0.7692 0.0000
vt 0.7400 0.7692 0.0000
vt 0.3400 0.2308 0.0000
vt 0.6600 0.2308 0.0000
vt 0.2600 0.7692 0.0000
vt 0.0000 0.7692 0.0000
vt 0.7692 -0.0000 0.0000
vt 1.0000 -0.0000 0.0000
vt 0.3400 0.0000 0.0000
# 24 texture coords

g Box001
usemtl wire_140088225
s 2
f 1/1/1 2/2/2 3/3/2 4/4/1 
f 5/5/2 6/6/3 7/7/3 8/8/2 
f 9/9/3 10/10/1 11/11/1 12/12/3 
s 4
f 13/1/4 14/4/4 15/3/5 16/2/5 
f 17/13/5 18/8/5 19/7/6 20/6/6 
f 21/9/6 22/12/6 23/11/4 24/10/4 
s 8
f 1/14/7 4/15/7 14/4/7 13/1/7 
s 16
f 4/16/8 3/17/8 15/3/8 14/4/8 
f 8/5/8 7/6/8 19/18/8 18/19/8 
f 12/20/8 11/21/8 23/11/8 22/12/8 
s 32
f 11/15/9 10/22/9 24/23/9 23/4/9 
s 64
f 10/21/10 9/20/10 21/12/10 24/11/10 
f 6/24/10 5/13/10 17/19/10 20/18/10 
f 2/17/10 1/16/10 13/4/10 16/3/10 
s 2
f 2/2/2 5/5/2 8/8/2 3/3/2 
f 6/6/3 9/9/3 12/12/3 7/7/3 
s 4
f 15/3/5 18/8/5 17/13/5 16/2/5 
f 19/7/6 22/12/6 21/9/6 20/6/6 
s 16
f 3/17/8 8/5/8 18/19/8 15/3/8 
f 7/6/8 12/20/8 22/12/8 19/18/8 
s 64
f 9/20/10 6/24/10 20/18/10 21/12/10 
f 5/13/10 2/17/10 16/3/10 17/19/10 
# 22 polygons

