mtllib Triform_01.mtl
o Triform_01.obj
v 0.935048 0.978727 0.037500
v 0.935048 0.978727 -0.037500
v 0.935048 1.021273 0.037500
v 0.935048 1.021273 -0.037500
v -0.435048 0.978727 0.828525
v -0.500000 0.978727 0.791025
v -0.435048 1.021273 0.828525
v -0.500000 1.021273 0.791025
v -0.500000 0.978727 -0.791025
v -0.435048 0.978727 -0.828525
v -0.500000 1.021273 -0.791025
v -0.435048 1.021273 -0.828525
v 0.760048 1.021273 0.037500
v 0.760048 1.021273 -0.037500
v -0.347548 1.021273 0.676971
v -0.412500 1.021273 0.639471
v -0.412500 1.021273 -0.639471
v -0.347548 1.021273 -0.676971
v -0.347548 0.978727 0.676971
v -0.412500 0.978727 0.639471
v 0.760048 0.978727 0.037500
v 0.760048 0.978727 -0.037500
v -0.412500 0.978727 -0.639471
v -0.347548 0.978727 -0.676971
vn 0.566947 -0.755929 0.327327
vn 0.566947 -0.755929 -0.327327
vn 0.566947 0.755929 0.327327
vn 0.566947 0.755929 -0.327327
vn -0.000000 -0.755929 0.654654
vn -0.566947 -0.755929 0.327327
vn -0.000000 0.755929 0.654654
vn -0.566947 0.755929 0.327327
vn -0.566947 -0.755929 -0.327327
vn -0.000000 -0.755929 -0.654654
vn -0.566947 0.755929 -0.327327
vn -0.000000 0.755929 -0.654654
vn -0.566947 0.755929 -0.327327
vn -0.566947 0.755929 0.327327
vn -0.000000 0.755929 -0.654654
vn 0.566947 0.755929 -0.327327
vn 0.566947 0.755929 0.327327
vn -0.000000 0.755929 0.654654
vn -0.000000 -0.755929 -0.654654
vn 0.566947 -0.755929 -0.327327
vn -0.566947 -0.755929 -0.327327
vn -0.566947 -0.755929 0.327327
vn 0.566947 -0.755929 0.327327
vn -0.000000 -0.755929 0.654654
vt 0.000000 0.000000
vt 0.000000 0.000000
vt 0.000000 0.000000
vt 0.000000 0.000000
vt 0.000000 0.000000
vt 0.000000 0.000000
vt 0.000000 0.000000
vt 0.000000 0.000000
vt 0.000000 0.000000
vt 0.000000 0.000000
vt 0.000000 0.000000
vt 0.000000 0.000000
vt 0.000000 0.000000
vt 0.000000 0.000000
vt 0.000000 0.000000
vt 0.000000 0.000000
vt 0.000000 0.000000
vt 0.000000 0.000000
vt 0.000000 0.000000
vt 0.000000 0.000000
vt 0.000000 0.000000
vt 0.000000 0.000000
vt 0.000000 0.000000
vt 0.000000 0.000000
g Cylinder
usemtl Default
f 5/1/5 1/2/1 3/3/3 7/4/7 
f 7/4/7 3/3/3 13/5/13 15/6/15 
f 1/2/1 5/1/5 19/7/19 21/8/21 
f 9/9/9 6/10/6 8/11/8 11/12/11 
f 11/12/11 8/11/8 16/13/16 17/14/17 
f 6/10/6 9/9/9 23/15/23 20/16/20 
f 2/17/2 10/18/10 12/19/12 4/20/4 
f 4/20/4 12/19/12 18/21/18 14/22/14 
f 10/18/10 2/17/2 22/23/22 24/24/24 
f 14/22/14 18/21/18 24/24/24 22/23/22 
f 17/14/17 16/13/16 20/16/20 23/15/23 
f 15/6/15 13/5/13 21/8/21 19/7/19 
f 2/17/2 4/20/4 3/3/3 1/2/1 
f 8/11/8 6/10/6 5/1/5 7/4/7 
f 4/20/4 14/22/14 13/5/13 3/3/3 
f 16/13/16 8/11/8 7/4/7 15/6/15 
f 6/10/6 20/16/20 19/7/19 5/1/5 
f 22/23/22 2/17/2 1/2/1 21/8/21 
f 12/19/12 10/18/10 9/9/9 11/12/11 
f 18/21/18 12/19/12 11/12/11 17/14/17 
f 10/18/10 24/24/24 23/15/23 9/9/9 
f 17/14/17 23/15/23 24/24/24 18/21/18 
f 21/8/21 13/5/13 14/22/14 22/23/22 
f 15/6/15 19/7/19 20/16/20 16/13/16 
